<svg width="152" height="1117" viewBox="0 0 152 1117" fill="none" xmlns="http://www.w3.org/2000/svg">
<path opacity="0.201567" d="M73.144 1075.68C73.144 1069.86 72.4507 1064.73 71.064 1060.29C69.608 1055.78 67.5973 1052.04 65.032 1049.06C62.3973 1046.01 59.2773 1043.72 55.672 1042.19C52.0667 1040.67 48.08 1039.9 43.712 1039.9C34.8373 1039.9 28.1467 1042.82 23.64 1048.64C19.1333 1054.46 16.88 1063.2 16.88 1074.85V1096.9H73.144V1075.68ZM150 1006.83V1024.72C150 1028.39 148.579 1031.1 145.736 1032.83L92.488 1071.52C90.824 1072.7 89.6453 1073.98 88.952 1075.37C88.1893 1076.69 87.808 1078.77 87.808 1081.61V1096.9H150V1116.97H0.967991L0.967991 1074.85C0.967991 1065.42 1.93866 1057.27 3.87999 1050.41C5.752 1043.54 8.49066 1037.89 12.096 1033.46C15.7013 1028.95 20.0693 1025.62 25.2 1023.47C30.2613 1021.32 35.9467 1020.25 42.256 1020.25C47.5253 1020.25 52.448 1021.08 57.024 1022.74C61.6 1024.41 65.7253 1026.83 69.4 1030.02C73.0053 1033.14 76.0907 1036.99 78.656 1041.57C81.2213 1046.07 83.1627 1051.21 84.48 1056.96C85.936 1054.39 88.0507 1052.18 90.824 1050.3L150 1006.83ZM94.672 935.621L34.04 959.021C32.2373 959.714 30.1573 960.442 27.8 961.205C25.3733 961.968 22.808 962.696 20.104 963.389C25.72 964.845 30.4 966.336 34.144 967.861L94.672 991.261V935.621ZM150 893.605L150 909.205C150 911.008 149.549 912.464 148.648 913.573C147.747 914.682 146.603 915.514 145.216 916.069L109.232 930.005V996.877L145.216 1010.81C146.464 1011.23 147.573 1012.03 148.544 1013.21C149.515 1014.38 150 1015.84 150 1017.57V1033.17L0.967991 973.581L0.967991 953.197L150 893.605ZM98.52 850.827C106.84 850.827 114.293 851.867 120.88 853.947C127.467 855.958 133.048 858.974 137.624 862.995C142.131 866.947 145.597 871.835 148.024 877.659C150.451 883.483 151.664 890.174 151.664 897.731C151.664 904.595 150.693 911.598 148.752 918.739C146.741 918.6 144.765 918.427 142.824 918.219C140.813 918.011 138.837 917.838 136.896 917.699C135.717 917.56 134.781 917.144 134.088 916.451C133.325 915.688 132.944 914.544 132.944 913.019C132.944 911.771 133.256 910.142 133.88 908.131C134.504 906.051 134.816 903.278 134.816 899.811C134.816 895.235 134.123 891.144 132.736 887.539C131.349 883.934 129.2 880.918 126.288 878.491C123.376 876.064 119.667 874.227 115.16 872.979C110.584 871.662 105.176 871.003 98.936 871.003H0.967991V850.827H98.52ZM94.672 765.34L34.04 788.74C32.2373 789.434 30.1573 790.162 27.8 790.924C25.3733 791.687 22.808 792.415 20.104 793.108C25.72 794.564 30.4 796.055 34.144 797.58L94.672 820.98V765.34ZM150 723.324V738.924C150 740.727 149.549 742.183 148.648 743.292C147.747 744.402 146.603 745.234 145.216 745.788L109.232 759.724V826.596L145.216 840.532C146.464 840.948 147.573 841.746 148.544 842.924C149.515 844.103 150 845.559 150 847.292V862.892L0.967991 803.3V782.916L150 723.324ZM17.92 645.771V694.027H150V714.099H17.92V762.459H0.967991L0.967991 645.771H17.92ZM73.144 541.823C73.144 535.999 72.4507 530.868 71.064 526.431C69.608 521.924 67.5973 518.18 65.032 515.199C62.3973 512.148 59.2773 509.86 55.672 508.335C52.0667 506.809 48.08 506.047 43.712 506.047C34.8373 506.047 28.1467 508.959 23.64 514.783C19.1333 520.607 16.88 529.343 16.88 540.991L16.88 563.039H73.144V541.823ZM150 472.975V490.863C150 494.537 148.579 497.241 145.736 498.975L92.488 537.663C90.824 538.841 89.6453 540.124 88.952 541.511C88.1893 542.828 87.808 544.908 87.808 547.751V563.039H150V583.111H0.967991V540.991C0.967991 531.561 1.93866 523.415 3.87999 516.551C5.752 509.687 8.49066 504.036 12.096 499.599C15.7013 495.092 20.0693 491.764 25.2 489.615C30.2613 487.465 35.9467 486.391 42.256 486.391C47.5253 486.391 52.448 487.223 57.024 488.887C61.6 490.551 65.7253 492.977 69.4 496.167C73.0053 499.287 76.0907 503.135 78.656 507.711C81.2213 512.217 83.1627 517.348 84.48 523.103C85.936 520.537 88.0507 518.319 90.824 516.447L150 472.975ZM94.672 401.764L34.04 425.164C32.2373 425.857 30.1573 426.585 27.8 427.348C25.3733 428.111 22.808 428.839 20.104 429.532C25.72 430.988 30.4 432.479 34.144 434.004L94.672 457.404L94.672 401.764ZM150 359.748V375.348C150 377.151 149.549 378.607 148.648 379.716C147.747 380.825 146.603 381.657 145.216 382.212L109.232 396.148L109.232 463.02L145.216 476.956C146.464 477.372 147.573 478.169 148.544 479.348C149.515 480.527 150 481.983 150 483.716V499.316L0.967991 439.724V419.34L150 359.748ZM0.967991 184.155L150 230.643V248.739L36.328 286.491C35.2187 286.838 34.04 287.184 32.792 287.531C31.544 287.808 30.2267 288.12 28.84 288.467C30.2267 288.814 31.544 289.16 32.792 289.507C34.04 289.854 35.2187 290.2 36.328 290.547L150 328.507V346.603L0.967991 393.091L0.967991 376.347C0.967991 374.544 1.41866 373.054 2.31999 371.875C3.22133 370.627 4.36533 369.83 5.75199 369.483L109.336 338.699C111.208 338.214 113.219 337.763 115.368 337.347C117.517 336.862 119.805 336.411 122.232 335.995C119.805 335.51 117.517 335.024 115.368 334.539C113.149 333.984 111.139 333.395 109.336 332.771L5.75199 297.723C4.57333 297.307 3.49866 296.51 2.52799 295.331C1.48799 294.083 0.967991 292.592 0.967991 290.859V285.035C0.967991 283.232 1.41866 281.776 2.31999 280.667C3.22133 279.558 4.36533 278.726 5.75199 278.171L109.336 243.227C111.139 242.603 113.08 242.048 115.16 241.563C117.24 241.008 119.424 240.488 121.712 240.003C119.424 239.656 117.24 239.275 115.16 238.859C113.08 238.443 111.139 237.992 109.336 237.507L5.75199 206.619C4.50399 206.272 3.39466 205.51 2.424 204.331C1.45333 203.083 0.967991 201.592 0.967991 199.859V184.155ZM94.672 119.968L34.04 143.368C32.2373 144.061 30.1573 144.789 27.8 145.552C25.3733 146.314 22.808 147.042 20.104 147.736C25.72 149.192 30.4 150.682 34.144 152.208L94.672 175.608V119.968ZM150 77.9515V93.5515C150 95.3542 149.549 96.8102 148.648 97.9196C147.747 99.0289 146.603 99.8609 145.216 100.416L109.232 114.352V181.224L145.216 195.16C146.464 195.576 147.573 196.373 148.544 197.552C149.515 198.73 150 200.186 150 201.92V217.52L0.967991 157.928L0.967991 137.544L150 77.9515ZM17.92 0.398292V48.6543H150V68.7263H17.92L17.92 117.086H0.967991L0.967991 0.398292H17.92Z" fill="black" fill-opacity="0.54"/>
</svg>
